<?xml version="1.0" standalone="no"?>
<!DOCTYPE svg PUBLIC "-//W3C//DTD SVG 20010904//EN"
 "http://www.w3.org/TR/2001/REC-SVG-20010904/DTD/svg10.dtd">
<svg version="1.0" xmlns="http://www.w3.org/2000/svg"
 width="170.000000pt" height="170.000000pt" viewBox="0 0 170.000000 170.000000"
 preserveAspectRatio="xMidYMid meet">
<metadata>
Created by potrace 1.14, written by Peter Selinger 2001-2017
</metadata>
<g transform="translate(0.000000,170.000000) scale(0.100000,-0.100000)"
fill="#000000" stroke="none">
<path d="M845 1440 c-172 -34 -321 -156 -404 -330 l-36 -75 -5 -185 c-3 -102
-9 -191 -13 -197 -5 -7 -26 -13 -47 -13 -33 0 -42 4 -54 29 -9 16 -19 54 -24
84 -12 74 -34 107 -73 107 -78 0 -115 -72 -106 -208 8 -117 20 -151 70 -207
50 -58 146 -106 257 -128 254 -52 248 -52 560 -43 190 5 260 20 336 71 28 19
63 35 78 35 40 0 100 34 135 77 94 114 107 423 24 586 -13 28 -47 71 -74 97
-27 26 -49 50 -49 54 0 15 -65 102 -99 134 -47 44 -136 89 -213 107 -67 16
-197 18 -263 5z m291 -54 c70 -22 167 -87 204 -137 16 -23 30 -45 30 -48 0 -3
-17 -6 -37 -6 -60 0 -48 -26 20 -44 76 -21 119 -57 156 -133 41 -84 54 -162
48 -283 -9 -155 -43 -243 -116 -292 -63 -43 -199 -27 -259 30 -41 38 -54 76
-62 191 -10 124 -22 171 -56 213 -16 20 -26 25 -34 17 -7 -8 -3 -26 15 -66 21
-45 27 -81 34 -177 6 -87 14 -130 28 -158 23 -44 93 -102 134 -110 16 -3 29
-9 29 -13 0 -24 -184 -60 -310 -60 l-46 0 1 74 c0 65 -3 78 -24 100 -37 39
-78 43 -146 11 -49 -24 -65 -26 -115 -21 -91 10 -134 -22 -134 -100 0 -34 0
-34 -35 -28 -56 10 -162 44 -201 64 -91 48 -131 121 -138 251 -5 94 10 142 48
154 32 10 48 -11 56 -73 13 -111 39 -142 114 -142 54 0 85 20 95 62 2 13 6
100 7 194 l3 170 38 78 c72 145 202 252 353 291 71 18 225 13 300 -9z m-272
-938 c20 -29 21 -92 1 -112 -39 -38 -209 -41 -283 -4 -42 20 -47 26 -45 53 3
44 25 54 102 49 52 -4 74 -1 106 15 56 27 100 27 119 -1z"/>
<path d="M640 941 c-5 -11 -10 -59 -10 -106 0 -47 5 -95 10 -106 13 -23 55
-25 64 -3 11 29 6 75 -9 80 -8 4 -15 13 -15 20 0 8 7 17 15 20 18 7 21 84 3
102 -18 18 -46 14 -58 -7z"/>
</g>
</svg>
